<?xml version="1.0" standalone="no"?>
<!DOCTYPE svg PUBLIC "-//W3C//DTD SVG 1.1//EN" "http://www.w3.org/Graphics/SVG/1.1/DTD/svg11.dtd" >
<svg xmlns="http://www.w3.org/2000/svg">
<metadata></metadata>
<defs>
<font id="hammerregular" horiz-adv-x="774" >
<font-face units-per-em="2048" ascent="1536" descent="-512" />
<missing-glyph horiz-adv-x="475" />
<glyph horiz-adv-x="0" />
<glyph horiz-adv-x="0" />
<glyph horiz-adv-x="682" />
<glyph unicode="&#xd;" horiz-adv-x="1024" />
<glyph unicode=" "  horiz-adv-x="475" />
<glyph unicode="&#x09;" horiz-adv-x="475" />
<glyph unicode="&#xa0;" horiz-adv-x="475" />
<glyph unicode="!" horiz-adv-x="266" d="M68 262v43h43v1118h-43v41h43h43h43v-41h-43v-1118h43v-43h-129zM92 0v82h82v-82h-82z" />
<glyph unicode="&#x22;" horiz-adv-x="358" d="M61 1296l29 138h53v-56h29v-82h-29h-53h-29zM225 1296l31 138h51v-56h31v-82h-31h-51h-31z" />
<glyph unicode="#" horiz-adv-x="1024" d="M111 483v117h47v-35h155v295h-155v-35h-47v117h47v-35h155v156h-34v45h116v-45h-37v-156h297v156h-34v45h116v-45h-37v-156h158v35h45v-117h-45v35h-158v-295h158v35h45v-117h-45v35h-158v-156h37v-45h-116v45h34v156h-297v-156h37v-45h-116v45h34v156h-155v-35h-47z M358 565h297v295h-297v-295z" />
<glyph unicode="$" horiz-adv-x="847" d="M47 555h47h45v-45h-43q13 -88 68 -155.5t137 -98.5v494l-51 14l-180 51q-14 29 -17 53q-2 2 -2 6q-4 24 -4 37l2 4l-2 5q0 121 71 216.5t183 131.5v149h-37v45h117v-45h-35v-139q34 6 68 6q39 0 57 -4v137h-35v45h117v-45h-37v-147q103 -31 174 -113.5t84 -189.5 q4 -32 4 -47h-47h-45v47h43q-13 89 -70.5 158t-142.5 98v-488l55 -16l117 -35h2l17 -4h2l47 -14q7 -14 16 -50q0 -2 2 -4q4 -28 4 -45v-6v-6q0 -123 -73.5 -219.5t-188.5 -130.5v-160h37v-45h-117v45h35v150q-45 -5 -57 -5q-28 0 -68 7v-150h35v-47h-117v47h37v162 q-100 32 -168.5 114t-81.5 187q-4 28 -4 45zM94 891q2 -2 2 -6v-11q2 -2 2 -6q0 -6 2 -10v-4l4 -2l197 -55v422q-87 -31 -143 -109q-64 -83 -64 -190v-21v-8zM346 244q46 -8 68 -8q30 0 57 6v458l-63 19l-43 12l-15 4h-4v-491zM346 782l70 -18l41 -12l14 -4v487q-36 4 -57 4 q-34 0 -68 -6v-451zM516 254q92 29 156 113q59 85 59 188q0 41 -8 72l-207 59v-432z" />
<glyph unicode="%" horiz-adv-x="817" d="M47 0h49l23 45l629 1356l10 20l2 4l10 21h-45h-6l-21 -45l-630 -1356zM47 995v301q0 63 44.5 107.5t107.5 44.5q62 0 105.5 -44.5t43.5 -107.5v-301q0 -57 -37 -100l-14 -14q-43 -37 -98 -37q-63 0 -107.5 44t-44.5 107zM66 995q0 -55 39 -94t94 -39q48 0 86 33 q8 8 12 14q33 38 33 86v72v156v73q0 55 -38.5 94.5t-92.5 39.5q-55 0 -94 -39t-39 -95v-73v-156v-72zM465 154v301q0 63 44 107t107 44t107.5 -44t44.5 -107v-301q0 -59 -39 -101l-12 -12q-42 -39 -101 -39q-63 0 -107 44.5t-44 107.5zM483 154q0 -56 39 -95t94 -39 q48 0 86 33l15 15q31 40 31 86v71v156v74q0 56 -38.5 94.5t-93.5 38.5q-56 0 -94.5 -39t-38.5 -94v-74v-156v-71z" />
<glyph unicode="&#x26;" horiz-adv-x="1089" d="M79 371q4 99 56 184q47 73 117 117l20 10l207 94l-272 588l-21 41l19 10l43 25q94 47 189 45.5t181 -53t134 -140.5q50 -94 46 -193t-57 -184q-46 -72 -116 -116l-21 -11l-59 -32l-4 -2l262 -566l121 72h24h25h24v-47h-24h-25h-12l-113 -66l47 -102h48v-45h-48h-47h-45 v45h41l-37 78l-151 -90l-23 41l156 92l-266 567l-222 -102q-107 -68 -139 -192t29 -238q65 -119 194 -156t248 29l23 -41q-135 -75 -283.5 -32t-222.5 177q-50 94 -46 193zM246 1384l274 -589l82 45q108 68 140 192t-31 238q-64 118 -194 156t-247 -27z" />
<glyph unicode="'" horiz-adv-x="198" d="M72 1298l30 138h52v-56h30v-82h-30h-52h-30z" />
<glyph unicode="(" horiz-adv-x="450" d="M51 360v721q0 151 106 257t255 106v-45q-131 0 -223.5 -93t-92.5 -225v-721q0 -130 92.5 -222.5t223.5 -92.5v-45q-149 0 -255 105.5t-106 254.5z" />
<glyph unicode=")" horiz-adv-x="450" d="M51 0v45q131 0 223.5 92.5t92.5 222.5v721q0 132 -92.5 225t-223.5 93v45q149 0 255 -106t106 -257v-721q0 -149 -106 -254.5t-255 -105.5z" />
<glyph unicode="*" horiz-adv-x="499" d="M59 1210v58h23v-17h145l-102 103l-12 -13l-17 17l41 41l17 -17l-15 -12l105 -102v145h-19v23h60v-23h-19v-145l105 102l16 -16l-104 -103h147v17h23v-58h-23v19h-147l104 -105l-16 -16l-105 104v-147h19v-23h-60v23h19v147l-105 -104l15 -12l-17 -17l-41 41l17 17l12 -13 l102 105h-145v-19h-23zM358 1096l13 12l28 29l15 -17l-41 -41zM358 1382l15 17l41 -41l-15 -17z" />
<glyph unicode="+" horiz-adv-x="880" d="M47 563v117h47v-37h328v328h-37v47h117v-47h-35v-328h328v37h45v-117h-45v35h-328v-328h35v-45h-117v45h37v328h-328v-35h-47z" />
<glyph unicode="," horiz-adv-x="174" d="M31 0v82h28h54h28l-28 -139h-54v57h-28z" />
<glyph unicode="-" d="M47 563v117h47v-37h328h45h203v37h45v-117h-45v35h-203h-45h-328v-35h-47z" />
<glyph unicode="." horiz-adv-x="149" d="M35 0v82h82v-82h-82z" />
<glyph unicode="/" horiz-adv-x="770" d="M20 0l21 45l631 1356l22 45h4h45l-10 -23l-2 -2l-8 -20l-631 -1356l-20 -45h-52z" />
<glyph unicode="0" horiz-adv-x="913" d="M84 350v21v743v21v-785zM84 350v785q6 88 47 159q1 2 4.5 8.5t5.5 8.5q8 16 31 43q52 61 126 96t159 35q103 0 190 -52.5t135 -140.5q45 -82 45 -178v-743q0 -96 -45 -178q-6 -12 -12 -21q-5 -7 -15.5 -21.5t-15.5 -21.5q-4 0 -4 -4q-4 -5 -10 -11t-13 -12.5t-10 -9.5 q-107 -92 -245 -92q-105 0 -191.5 51.5t-134.5 138.5q-41 71 -47 160zM131 350q8 -128 102 -216.5t224 -88.5q120 0 213 80q27 27 32 33q2 3 6.5 9t6.5 9l-549 1086q-32 -63 -35 -127v-21v-743v-21zM131 350v21v743v21v-785zM195 1309l548 -1088q37 67 37 150v743 q0 135 -94.5 230.5t-228.5 95.5q-80 0 -148 -35.5t-114 -95.5z" />
<glyph unicode="1" horiz-adv-x="565" d="M41 791v45h47l303 604l21 41v6h2h45v-45v-2h2v-1336v-57h45v-47h-47h-45h-2h-45v47h45v49v103v1179l-279 -542l-20 -45h-72z" />
<glyph unicode="2" horiz-adv-x="903" d="M80 0v47v326v45q0 119 67.5 214t174.5 134q19 8 53 16q56 9 78 9q134 0 228.5 95t94.5 230q0 134 -95 229t-228 95h-93h-145h-41v-45h-47v45v47h41h6h41h238q29 0 43 -2q30 -4 43 -8q124 -29 204 -130t80 -231q0 -109 -56.5 -198t-150.5 -136q-80 -39 -163 -39h-19 q-128 -6 -217.5 -100.5t-89.5 -224.5v-23v-22v-180v-146h145h181h178h53h47h45v47h47v-47v-47h-47h-45h-47h-231h-326h-47z" />
<glyph unicode="3" horiz-adv-x="919" d="M98 0v47v47h47v-47h48h98h180h16q4 0 11.5 1t11.5 1q122 15 204.5 107.5t82.5 216.5q0 4 -1 11t-1 11t1 12t1 11q0 125 -82.5 217t-204.5 106q-4 0 -11.5 1t-11.5 1h-16h-92h-139v-47h-47v47v48v45h47v-45h51h92q135 0 230.5 95t95.5 230q0 134 -95.5 229t-230.5 95h-92 h-146h-47v47h47h238q29 0 43 -2q30 -4 45 -8q123 -30 203 -131t80 -230q0 -109 -56.5 -198t-150.5 -136q38 -9 53 -14q107 -40 174.5 -136t67.5 -214v-45q0 -154 -108.5 -263.5t-262.5 -109.5h-278h-48h-47zM98 1395v45h47v-45h-47z" />
<glyph unicode="4" horiz-adv-x="866" d="M55 743v373q0 154 108.5 262.5t262.5 108.5h94v-696h41h-2h193v45h47v-93h-279v-696h45v-47h-139v47h47v326v22v23v325h-92h-326zM102 791h371v649h-47q-133 0 -227.5 -94t-96.5 -228v-2v-325z" />
<glyph unicode="5" horiz-adv-x="925" d="M96 0v45v47h45v-47h47h48h51h180q3 0 8.5 1t7.5 1q129 6 219.5 100t90.5 224q0 16 -2 24q2 6 2 23q0 130 -90 223.5t-220 101.5h-16h-326h-45v45v326v326v47h45h326h238h40h7h41v-47v-47h-48v47h-40h-146h-92h-180h-146v-146v-180v-180v-146h146h180q41 0 78 -6 q25 -6 51 -16q108 -41 176 -135.5t68 -212.5v-47q0 -154 -109.5 -262.5t-263.5 -108.5h-231h-48h-47h-45z" />
<glyph unicode="6" horiz-adv-x="962" d="M98 371v743q0 154 109 263.5t264 109.5q154 0 262.5 -109.5t108.5 -263.5v-43h-94v47h47q-2 134 -96.5 228t-227.5 94q-135 0 -230.5 -95.5t-95.5 -230.5v-516q48 87 134.5 138.5t191.5 51.5q31 0 45 -2q95 -12 164 -61q76 -53 115 -127q47 -80 47 -180v-47 q0 -154 -108.5 -262.5t-262.5 -108.5q-155 0 -264 108.5t-109 262.5zM145 371q0 -134 95.5 -230t230.5 -96q133 0 228.5 96t95.5 230v47q0 135 -95 230t-229 95q-135 0 -230.5 -95t-95.5 -230v-47z" />
<glyph unicode="7" horiz-adv-x="1058" d="M131 0v47h45h2h21h24h47v-47h-47h-45h-2h-45zM176 1395v47v47h672h26h46v-47h-43l-648 -1393h-51l647 1393h-602v-47h-47z" />
<glyph unicode="8" horiz-adv-x="962" d="M86 375v47q0 48 12 94q12 48 35 86q15 28 45 66q2 0 2 2l10 10v2q6 3 11 8l2 2l10 10l2 3q4 2 10 8q1 0 2 1t2 1q5 5 11 8l2 2q8 4 12 8h2q4 4 12 8q5 3 14.5 8.5t14.5 8.5q5 2 15.5 6t15.5 6q-130 48 -195 168q-47 80 -47 180q0 154 108.5 263.5t262.5 109.5 q155 0 263.5 -109.5t108.5 -263.5q0 -16 -2 -43q-6 -85 -55.5 -158.5t-124.5 -117.5q-54 -27 -59 -29l12 -6q12 -2 27 -10q39 -23 59 -39l2 -2q2 -1 6 -4t6 -4l13 -13l10 -10l2 -2q31 -31 57 -78q1 -1 2 -4t2 -4t2.5 -3t2.5 -3q0 -2 4 -10q1 -1 2 -4.5t2 -4.5q0 -1 1 -3 t1 -3l4 -8q0 -2 4 -10q0 -1 1 -4t1 -4t1 -4t1 -5q1 -2 2 -6t2 -6v-4q1 -2 2 -6t2 -6v-4q1 -3 2 -8.5t2 -8.5v-4q0 -8 2 -12v-4q0 -11 2 -17v-4v-16v-47q0 -154 -108.5 -262.5t-263.5 -108.5q-154 0 -262.5 108.5t-108.5 262.5zM133 375q0 -134 95.5 -230t228.5 -96 q135 0 230 96t95 230v47v4q0 114 -75 205q-1 2 -5.5 5.5t-5.5 4.5v2l-10 10q-9 9 -10 11h-2l-10 10h-2q-5 5 -11 8l-2 2q-4 2 -10 8q-2 0 -4 2t-10 6l-2 2q-8 4 -11 7q-4 0 -4 2q-2 1 -5 2t-5 2l-4 2q-8 4 -10 4q-2 2 -6 2q-4 4 -9 4q-2 2 -6 2q-2 1 -5 2t-5 2q-4 0 -6 2 q-6 0 -8 2q-5 0 -9 2q-4 0 -8 2h-8q-2 2 -8 2h-8q-2 2 -9 2h-10q-3 0 -6 3h-16q-126 0 -219 -85t-105 -208v-33v-47zM133 1118q0 -134 95.5 -229.5t228.5 -95.5q19 0 47 4q2 0 8.5 2t7.5 2q106 22 176.5 96t83.5 178q0 5 1 15.5t1 15.5v4v4v4v4q-2 134 -97 228t-228 94 q-134 0 -229 -95.5t-95 -230.5z" />
<glyph unicode="9" horiz-adv-x="913" d="M92 381v43h92v-47h-47q1 -133 96.5 -227.5t229.5 -94.5q135 0 230 95.5t95 230.5v557q-48 -88 -134.5 -140.5t-190.5 -52.5q-10 0 -45 5q-95 12 -164 61q-75 52 -117 127q-34 60 -43 133q-2 16 -2 47q0 154 108.5 262.5t262.5 108.5q141 0 246 -93t122 -231q3 -12 3 -24 q2 -8 2 -23v-737q0 -154 -109.5 -263.5t-263.5 -109.5t-262.5 109.5t-108.5 263.5zM137 1118q0 -135 96 -230t230 -95q135 0 230 95t95 230t-95 230.5t-230 95.5q-134 0 -230 -95.5t-96 -230.5z" />
<glyph unicode=":" horiz-adv-x="219" d="M63 0v82h82v-82h-82zM63 535v81h82v-81h-82z" />
<glyph unicode=";" horiz-adv-x="233" d="M72 -2v82h30h52h30l-30 -139h-52v57h-30zM72 532v82h82v-82h-82z" />
<glyph unicode="&#x3c;" horiz-adv-x="1089" d="M27 662l73 24l947 334v-47l-857 -311l857 -312v-47l-947 336z" />
<glyph unicode="=" horiz-adv-x="915" d="M53 565v117h45v-35h703v35h45v-117h-45v35h-703v-35h-45zM53 907v117h45v-37h703v37h45v-117h-45v35h-703v-35h-45z" />
<glyph unicode="&#x3e;" horiz-adv-x="1099" d="M35 297v47l854 311l-854 312v47l944 -334l76 -25l-76 -22z" />
<glyph unicode="?" horiz-adv-x="718" d="M106 272v41h41v222q3 145 123 243q10 5 13 8q6 4 18 12.5t18 12.5q2 1 6.5 3t6.5 3q6 2 14 6q6 2 14 6q2 0 5 1t4 1q84 31 136 104.5t52 164.5q0 4 -1 10.5t-1 9.5t1 10.5t1 10.5q0 115 -79 197t-193 87q-2 0 -7 1t-8 1h-28h-27h-41v-41h-41v41v39h41h41h27h28 q135 0 230.5 -95t95.5 -230h-2q2 -6 2 -21q0 -14 -2 -20h2q0 -76 -31.5 -141.5t-87.5 -110.5q-26 -21 -39 -29q-3 -1 -8 -4t-8 -4h-2q-2 -1 -27 -14q-2 0 -4.5 -1t-3.5 -1l-4 -2t-3.5 -1.5t-3.5 -1.5t-3 -2q-80 -32 -131 -99.5t-52 -153.5v-222h41v-41h-123zM123 2v82h82 v-82h-82z" />
<glyph unicode="@" horiz-adv-x="1583" d="M53 29v1056q0 151 106.5 258t258.5 107h751q152 0 258.5 -107t106.5 -258v-718q0 -152 -106.5 -258.5t-258.5 -106.5h-45h-45v45v141q-47 -85 -131.5 -135.5t-185.5 -50.5q-151 0 -257 106t-106 257v362q0 151 106 257t257 106q101 0 185.5 -51t131.5 -136v129v45h45h45 v-45h-45v-985h45q132 0 226 94t94 226v718q0 132 -94 225t-226 93h-751q-132 0 -226 -93t-94 -225v-1056q0 -132 94 -226t226 -94h655v-45h-655q-152 0 -258.5 107t-106.5 258zM444 365q0 -132 93 -225t225 -93t224.5 93t92.5 225v362q0 132 -92.5 224.5t-224.5 92.5 t-225 -92.5t-93 -224.5v-362z" />
<glyph unicode="A" horiz-adv-x="976" d="M86 0v45h49l338 1311l25 92l22 -92l338 -1311h47v-45h-35h-47h-53v45h41l-174 680h-279l-176 -680h39v-45h-51h-47h-37zM369 768h256l-127 498z" />
<glyph unicode="B" horiz-adv-x="989" d="M113 0v45h45v320q0 16 2 22q-2 8 -2 23v1003h-45v47h323q15 0 43 -4q7 0 43 -6q122 -29 201.5 -128t79.5 -226q0 -107 -56.5 -195t-148.5 -133q34 -8 53 -16q105 -39 171.5 -132.5t66.5 -209.5v-45q0 -151 -107.5 -258t-259.5 -107h-409zM158 365v45q0 -15 2 -23 q-2 -6 -2 -22zM205 45h317h19q4 2 16 2h4h2l2 2h6q5 0 7 2q8 0 12 2h6q2 2 10 2v2q3 0 15 4q2 0 12 5q2 1 7 2t7 2q4 2 12.5 6t12.5 6q1 0 2 1t2 1q5 3 16.5 10t16.5 10q6 6 12 9l10 10q7 3 10 10q6 3 11 8q1 1 4.5 5.5t5.5 5.5q1 2 4 6t4 6l10 10q4 8 8 12q1 2 3.5 6.5 t3.5 6.5q2 2 6 10q3 5 8.5 15t7.5 14q0 4 4 12q1 1 2 4.5t2 5.5q0 2 1 4.5t1 3.5q2 2 2 6q0 1 1 4.5t1 4.5q7 20 9 34v13q2 12 2 35v45v34q-2 4 -2 13q-1 2 -2 7t-2 7q0 3 -5 18q0 2 -1 6.5t-1 6.5q-4 12 -4 14q-4 8 -4 10q-1 2 -2 5t-2 4q-1 2 -2 5t-2 5q-2 3 -5.5 11 t-4.5 11q-1 1 -6 11h-2q-1 2 -3.5 5t-3.5 5q0 1 -1 2t-1 2l-6 6q0 2 -4 6q-1 1 -3 4t-3 4q-3 6 -8 11l-10 10q-9 9 -11 10l-10 10h-2h2q-2 1 -9.5 8t-12.5 9q-1 1 -4.5 3t-4.5 3l-18 12q-2 1 -5 2t-5 2q-21 13 -51 23h-3q-12 6 -26 6q0 2 -4 2q-1 0 -4 1t-4 1h-7q-4 2 -12 2 q-2 0 -7 1t-7 1h-6h-19h-317v-319v-45v-320zM205 365v45v-23v-22zM205 776h231q134 0 227 93t93 227q0 132 -93.5 224.5t-226.5 92.5h-231v-637zM561 727q8 0 12 -2h7h-7q-4 2 -12 2zM561 727q8 0 12 -2h7q-3 0 -9.5 1t-9.5 1zM709 670q5 -2 12.5 -9t9.5 -8h-2 q-14 14 -20 17zM709 670q6 -3 20 -17q-14 14 -20 17z" />
<glyph unicode="C" horiz-adv-x="909" d="M72 365v731q0 151 106.5 257.5t257.5 106.5h41q151 -3 256 -109t105 -255v-47h-93v47h48q0 130 -92.5 222.5t-223.5 94.5h-41q-132 0 -224.5 -92.5t-92.5 -224.5v-178v-377v-176q0 -132 92.5 -226t224.5 -94h35q131 2 226.5 96t95.5 224v102h-48v45h93v-45v-102 q0 -150 -108.5 -256.5t-258.5 -108.5h-35q-151 0 -257.5 107t-106.5 258z" />
<glyph unicode="D" horiz-adv-x="1077" d="M125 0v45h45v320v45v686v317h-45v47h45h45h385q102 0 188 -51t132 -137q47 -86 47 -176v-686v-45q0 -94 -47 -177q-46 -86 -132 -137t-188 -51h-338h-47h-45h-45zM215 45h47h162h176h16q6 2 17 2q122 12 204.5 103t82.5 215v22v23v131v47v330v178q0 132 -94 224.5 t-226 92.5h-176h-209v-141v-176v-178v-330v-47v-131q0 -15 2 -23q-2 -6 -2 -22v-132v-45v-143z" />
<glyph unicode="E" horiz-adv-x="1005" d="M94 0v47h45v682v45v637h-45v45h45h47h682v-45v-47h-47v47h-635v-637h273v45h45v-45v-45v-47h-45v47h-273v-682h45h590v45h47v-45v-47h-47h-590h-45h-47h-45z" />
<glyph unicode="F" horiz-adv-x="827" d="M102 0v45h45v680v47v635h-45v45h45h46h681v-45v-45h-47v45h-634v-635h272v45h45v-45v-47v-45h-45v45h-272v-680h45v-45h-45h-46h-45z" />
<glyph unicode="G" horiz-adv-x="923" d="M78 362v728q0 151 105.5 256.5t256.5 105.5h41q149 -2 254 -107.5t105 -254.5v-43h-92v45h47q-1 130 -93 221.5t-221 93.5h-41q-131 0 -224 -92.5t-93 -224.5v-177v-374v-177q0 -132 93 -224.5t224 -92.5h41q131 2 222.5 94.5t91.5 222.5v72v49h-142h-131v-45h-45v45v45 h45h273h45v-94v-72q0 -149 -105 -254.5t-254 -107.5h-41q-151 0 -256.5 105.5t-105.5 256.5z" />
<glyph unicode="H" horiz-adv-x="985" d="M61 0v45h45v55v1307h-45v2v43v2h93v-2v-4v-39v-2v-59v-576h663v576v59v2v39v6h2h45h45v-45v-2h-45v-1307v-55h45v-45h-47h-45h-45v45h45v47v101v534h-663v-534v-101v-47h45v-45h-45h-45h-3h-45z" />
<glyph unicode="I" horiz-adv-x="301" d="M72 0v45h45v47v101v1155v59h-45v43h135v-43h-43v-1307v-55h43v-45h-45h-45h-45z" />
<glyph unicode="J" horiz-adv-x="995" d="M92 362v121v45h45h45v-45h-45v-121q0 -132 93 -224.5t225 -92.5t224.5 92.5t92.5 224.5v177v868h-45v45h45h47h45v-45h-45v-1045q0 -151 -106.5 -256.5t-257.5 -105.5t-257 105.5t-106 256.5z" />
<glyph unicode="K" horiz-adv-x="958" d="M80 0v45h45v55v1311h-45v45h45h45h2v-6v-39v-61v-820l240 347l28 43l338 491l27 35l2 6h2v2l2 2v2h88v-2v-45h-45h-2h-14h-4l-27 -35l-2 -2l-344 -497l-15 -21l361 -721l2 -2l43 -88h2h45v-45h-45h-2h-27h-18h-45v45h41l-385 768l-246 -356v-412h45v-45h-45h-47h-45z" />
<glyph unicode="L" horiz-adv-x="1021" d="M102 0v47h45v47v101v1157v61h-45v45h45h3h45h45v-45h-45v-1313v-53h45h591v45h46v-45v-47h-775z" />
<glyph unicode="M" horiz-adv-x="1196" d="M137 1413v45h92v-6l21 -39l375 -590l348 590l20 39v6h47h43v-45h-43v-1313v-55h43v-45h-45h-45h-47v45h47v49v101v1157l-338 -580l-30 -49l-27 49l-369 580v-1157v-103v-45h45v-47h-45h-45h-2h-43v47h43v53v1313h-45z" />
<glyph unicode="N" horiz-adv-x="1058" d="M145 0v45h45v1368h-45v45h93v-6l636 -1262v1223h-45v45h45h46h45v-45h-45v-1313v-100l-46 90l-636 1262v-1307h45v-45h-45h-48h-45z" />
<glyph unicode="O" horiz-adv-x="868" d="M80 367v729q0 151 106.5 257.5t257.5 106.5q152 0 258.5 -106.5t106.5 -257.5v-729q0 -141 -90 -240q-15 -18 -33 -33q-102 -92 -242 -92q-151 0 -257.5 107t-106.5 258zM127 367q0 -132 92.5 -225t224.5 -93q121 0 209 78q6 4 33 31q78 91 78 209v176v377v176 q0 132 -94 225.5t-226 93.5t-224.5 -93.5t-92.5 -225.5v-176v-377v-176z" />
<glyph unicode="P" horiz-adv-x="976" d="M106 0v47h46v318v45v319v45v320v319h-46v45h46h47h317q152 0 258.5 -106.5t106.5 -257.5q0 -115 -66 -208.5t-172 -133.5q-64 -23 -127 -23h-176h-141v-141v-47v-131v-23v-22v-132v-45v-141h45v-47h-45h-47h-46zM199 774h141h176q132 0 226 94t94 226t-94 225.5 t-226 93.5h-176h-141v-143v-176v-176v-144z" />
<glyph unicode="Q" horiz-adv-x="940" d="M92 367v733q0 151 107 257.5t258 106.5q152 0 259 -106.5t107 -257.5v-733q0 -140 -92 -242l80 -78h57v-47h-77l-46 47l-45 45q-107 -92 -243 -92q-151 0 -258 107.5t-107 259.5zM137 367q0 -132 94 -226t226 -94q120 0 209 76l-76 78h-60v45h78l45 -45l45 -45l2 2 q78 91 78 209v178v377v178q0 132 -94 225.5t-227 93.5q-132 0 -226 -93.5t-94 -225.5v-178v-377v-178z" />
<glyph unicode="R" horiz-adv-x="950" d="M80 0v47h45v686v45v322v319h-45v45h45h45h322q152 0 259 -106.5t107 -257.5q0 -148 -102 -254.5t-248 -112.5l289 -686h61v-47h-137v47h27l-289 686h-289v-686h47v-47h-47h-45h-45zM170 778h143h179q132 0 225.5 94.5t93.5 227.5q0 132 -93.5 225.5t-225.5 93.5h-179 h-143v-143v-176v-178v-144z" />
<glyph unicode="S" horiz-adv-x="903" d="M98 0v47v45h45v-45h47h46h51h178h16q126 6 214.5 98.5t88.5 221.5v22v23q0 128 -88 220.5t-215 100.5q-7 0 -37.5 3.5t-74.5 13t-66 20.5q-93 47 -149 135t-56 195q0 128 79 226t202 128q10 3 43 8q14 2 43 2h123h41h4h41v-45v-45h-45v45h-41h-33h-90 q-133 0 -227.5 -93.5t-94.5 -225.5q0 -133 91 -218.5t247 -99.5q92 -7 162 -43.5t109.5 -90.5t59 -113.5t19.5 -122.5v-45q0 -152 -107 -259.5t-259 -107.5h-229h-46h-47h-45z" />
<glyph unicode="T" horiz-adv-x="1021" d="M92 1374v45v47h45h320h2h45h45h274h47v-92h-47v45h-274h-45v-1317v-55h45v-47h-45h-47h-45v47h45v47v101v1163v61h-320v-45h-45z" />
<glyph unicode="U" horiz-adv-x="995" d="M80 1421v45h45h47h45v-45h-45v-876v-178q0 -132 94 -226t226 -94q133 0 227 94t94 226v178v876h-45v45h45h45h47v-45h-47v-1054q0 -152 -107 -259.5t-259 -107.5q-151 0 -259 107.5t-108 259.5v1054h-45z" />
<glyph unicode="V" horiz-adv-x="1003" d="M92 1389v45h35h47h53v-45h-41l312 -1207l311 1207h-39v45h51h47h37v-45h-49l-336 -1297l-22 -92l-23 92l-336 1297h-47z" />
<glyph unicode="W" horiz-adv-x="1259" d="M55 1386v46h35h47h53v-46h-40l311 -1206l172 668v-182l-150 -576l-22 -92l-23 92l-336 1296h-47zM633 666v182l172 -668l311 1209h-39v45h51h48h36v-45h-49l-334 -1299l-24 -90l-23 90z" />
<glyph unicode="X" horiz-adv-x="987" d="M72 0v47h45l336 723l-293 631h-88v47h114v-2l23 -43l270 -580l269 580l22 45h115v-45h-88l-293 -633l336 -725h2h43v-45h-43h-2h-45h-45v45h41l-312 672l-313 -670h43v-47h-47h-45h-45z" />
<glyph unicode="Y" horiz-adv-x="1032" d="M111 1401v47h114v-2l23 -43l268 -580l270 580l23 45h115v-45h-88l-293 -633l-2 -4v-721h45v-45h-45h-45h-45v45h45v717l-4 8l-293 631h-88z" />
<glyph unicode="Z" horiz-adv-x="1058" d="M113 1401v45h2h43h2h626h7h43l-11 -21v-2l-10 -20l-631 -1356h561h46h45h2v45h45v-45h-2v-47h-43h-2h-45h-46h-581h-49l20 47l631 1354h-563h-43v-45h-45v45h-2z" />
<glyph unicode="[" horiz-adv-x="342" d="M76 1421v47h182v-47h-135v-1421h-45zM123 0v45h137v-45h-137z" />
<glyph unicode="\" horiz-adv-x="786" d="M27 1446h45h6l20 -45l631 -1356l21 -45h-50l-22 45l-631 1356l-8 20l-2 2z" />
<glyph unicode="]" horiz-adv-x="364" d="M92 0v47h135v-47h-135zM92 1421v47h182v-47v-1421h-47l2 1421h-137z" />
<glyph unicode="^" horiz-adv-x="460" d="M49 1020l160 453l12 36l10 -36l162 -453h-22l-150 410l-149 -410h-23z" />
<glyph unicode="_" horiz-adv-x="876" d="M72 0v45h712v-45h-712z" />
<glyph unicode="`" horiz-adv-x="176" d="M47 1114l2 211v82h53h29l-31 -293h-53z" />
<glyph unicode="a" horiz-adv-x="925" d="M74 362v41q0 95 45 177q47 85 131.5 135.5t185.5 50.5t186.5 -50.5t131.5 -135.5v145q0 132 -93 224.5t-225 92.5q-31 0 -45 -2l-22 -8l-45 -12l-66 -19l-61 -18h2h-4v-59h-45v47v47h2h2l137 39l12 4l45 12l35 10q16 4 53 4q40 0 88 -10q120 -30 197.5 -128t77.5 -224 v-680h45v-45h-45h-45v45v141q-46 -85 -131.5 -135.5t-186.5 -50.5q-151 0 -256.5 105.5t-105.5 256.5zM119 362q0 -132 92.5 -224.5t224.5 -92.5t225 92.5t93 224.5v41q0 132 -93 225t-225 93t-224.5 -93t-92.5 -225v-41z" />
<glyph unicode="b" horiz-adv-x="909" d="M66 2v45h45v1522h-45v45h45h45v-45v-666q48 85 132.5 136t184.5 51q151 0 258 -106t107 -257v-362q0 -151 -107 -257t-258 -106q-100 0 -184.5 50.5t-132.5 135.5v-141v-45h-45h-45zM156 365q0 -132 93 -225t224 -93q132 0 225 93t93 225v362q0 132 -93 224.5t-225 92.5 q-131 0 -224 -92.5t-93 -224.5v-362z" />
<glyph unicode="c" horiz-adv-x="886" d="M72 362v365q0 151 106.5 258t257.5 107t258 -107t107 -258h-45h-47v45h43q-17 116 -107 194t-209 78q-132 0 -224.5 -92.5t-92.5 -224.5v-365q0 -132 92.5 -224.5t224.5 -92.5q119 0 209 78t107 194h-43v45h47h45q0 -151 -107 -257.5t-258 -106.5t-257.5 106.5 t-106.5 257.5z" />
<glyph unicode="d" horiz-adv-x="921" d="M66 367v364q0 151 106 258t256 107q101 0 186.5 -51.5t133.5 -137.5v664v45h45h45v-45h-45v-1522h45v-47h-45h-45v47v141q-48 -85 -133.5 -136.5t-186.5 -51.5q-150 0 -256 107t-106 258zM111 367q0 -132 92.5 -225t224.5 -93t226 93t94 225v364q0 132 -94 225t-226 93 t-224.5 -93t-92.5 -225v-364z" />
<glyph unicode="e" horiz-adv-x="870" d="M63 360v363q0 152 106.5 258t258.5 106q134 0 235 -87t123 -218q5 -35 5 -45l-46 -12l-636 -184v-181q0 -132 93.5 -225.5t225.5 -93.5q120 0 209 78t104 194h-41v47h91q0 -151 -106 -257.5t-257 -106.5q-152 0 -258.5 106.5t-106.5 257.5zM109 588l632 182 q-17 117 -105.5 194.5t-207.5 77.5q-132 0 -225.5 -93.5t-93.5 -225.5v-135z" />
<glyph unicode="f" horiz-adv-x="419" d="M63 0v45h46v684h-46v45h46v318q0 139 91.5 242t225.5 118v4h45v-45v-45h-45v41q-117 -17 -194.5 -106t-77.5 -209v-318h45v-45h-45v-684h45v-45h-45h-45h-46z" />
<glyph unicode="g" horiz-adv-x="858" d="M59 367v362q0 152 106 258.5t257 106.5q101 0 186.5 -51t132.5 -136v187h90v-45h-45v-1047q0 -151 -106 -257.5t-258 -106.5q-17 0 -45 4v88h45v-45q132 0 225.5 92.5t93.5 224.5v188q-46 -86 -131.5 -137t-187.5 -51q-151 0 -257 107t-106 258zM104 367 q0 -132 93.5 -226t224.5 -94q132 0 225.5 94t93.5 226v362q0 132 -93.5 226t-225.5 94q-131 0 -224.5 -94t-93.5 -226v-362z" />
<glyph unicode="h" horiz-adv-x="1007" d="M88 0v45h45v1366h-45v45h45h45v-45v-506q46 85 132.5 136t187.5 51q151 0 256.5 -106t105.5 -257v-684h45v-45h-45h-45h-45v45h45v684q0 131 -93.5 224.5t-223.5 93.5q-132 0 -226 -93.5t-94 -224.5v-684v-45h-45h-45z" />
<glyph unicode="i" horiz-adv-x="284" d="M70 0v45h47v1002h-47v45h47h45h45v-45h-45v-1002h45v-45h-45h-45h-47zM98 1180v82h82v-82h-82z" />
<glyph unicode="j" horiz-adv-x="280" d="M-252 -270h45v-45q132 0 226 92.5t94 224.5v176v871h-45v45h45h45h45v-45h-45v-1047q0 -151 -107 -257.5t-258 -106.5h-45v4v45v43zM94 1182v82h82v-82h-82z" />
<glyph unicode="k" horiz-adv-x="833" d="M86 0v45h45v55v269h-2v168v47v149h2v21v47v610h-45v45h45h45h2v-6v-39v-61v-537l166 47l43 14l318 91q0 -13 2 -21q0 4 -1 11t-1 10l6 2v57h45v-90h-4v-2l-45 -12l-297 -86l297 -789h45v-43h-45h-29h-64v43h41l-290 774l-187 -53v-193v-43v-10v-63v-412h45v-45h-45h-45 h-47z" />
<glyph unicode="l" horiz-adv-x="325" d="M63 0v45h46v2v47v101v1202v14h-46v2v-2v45h46h2h28h15h2v-1354v-55v-2h43v-45h-45h-45h-46z" />
<glyph unicode="m" horiz-adv-x="1617" d="M76 0v45h45v1002h-45v45h45h45v-45v-144q46 86 132 137.5t187 51.5q95 0 176.5 -46t129.5 -124v2q51 77 131.5 122.5t175.5 45.5q152 0 258 -107t106 -258v-682h45v-45h-45h-45v45v682q0 132 -93.5 226t-225.5 94q-89 0 -164.5 -47t-116.5 -123v-3q31 -70 31 -147v-682 h45v-45h-45h-45v45v682q0 43 -12 86l-25 64q-41 76 -116.5 123t-164.5 47q-132 0 -225.5 -94t-93.5 -226v-682v-45h-45h-45z" />
<glyph unicode="n" horiz-adv-x="1001" d="M106 0v45h48v1002h-48v45h48h45v-45v-144q46 86 131 137.5t186 51.5q152 0 258.5 -107t106.5 -258v-682h45v-45h-45h-45v45v682q0 132 -94 226t-226 94q-131 0 -224 -94t-93 -226v-682v-45h-45h-48z" />
<glyph unicode="o" horiz-adv-x="858" d="M61 367v362q0 94 45 176q4 4 7 10q1 1 6 11q1 1 3 4t3 4q6 12 14 20q74 74 121 99q1 1 4 2t4 2q3 1 8.5 3t8.5 3q8 4 14 6q8 4 10 4q1 0 2 1t2 1q2 0 5.5 1t5.5 1q2 2 4 2q6 0 8 2q2 0 6 1t6 1q4 2 10 2q5 0 7 2h6h2q6 3 14 3q2 0 7 1t7 1h11h12h12h8q3 0 9 -1t8 -1 q6 0 12 -3h2h8q2 -2 6 -2q7 0 9 -2q2 0 7 -1t7 -1q2 -2 8 -2q2 -2 4 -2t5.5 -1t5.5 -1l2 -2q4 0 12 -4q2 -1 7 -3t7 -3t17 -6q1 -1 4 -2t4 -2q1 0 2 -1t2 -1q4 -4 8 -4q2 -1 5 -3.5t5 -3.5q4 -4 8 -4q5 -4 15.5 -12t15.5 -12q10 -6 27 -23l8 -8q12 -12 16 -18l9 -9 q8 -12 14 -20q3 -4 18 -29q45 -82 45 -176v-362q0 -98 -45 -177q-1 -2 -4 -6t-4 -6q-3 -9 -8 -14q-7 -14 -16 -23q-15 -34 -78 -73q-2 -1 -5 -3.5t-5 -3.5q-2 -2 -7.5 -5t-7.5 -5l-16 -8q-8 -4 -10 -6q-5 0 -13 -4q-2 -2 -6 -2q0 -2 -2 -2q-1 0 -3.5 -1t-4.5 -1q-2 -2 -4 -2 l-10 -5h-2q-2 -2 -9 -2q-8 -4 -28 -8q-7 0 -9 -2h-6q-1 0 -3.5 -1t-4.5 -1q-5 0 -15.5 -1t-15.5 -1h-8q-4 -2 -12 -2q-4 0 -11.5 1t-11.5 1h-10q-75 6 -143 45q-8 4 -10 6q-34 19 -50 35q-1 1 -4 3t-4 3q-3 3 -9 9.5t-9 9.5q-13 13 -15 16q-26 30 -41 59q-45 79 -45 177z M106 367q0 -132 93 -225t225 -93q131 0 224 93t93 225v362q0 131 -93.5 224.5t-223.5 93.5q-132 0 -225 -93.5t-93 -224.5v-362z" />
<glyph unicode="p" horiz-adv-x="894" d="M55 -315h45v1366h-45v45h90v-189q4 8 7 11q1 3 4.5 8t3.5 6q4 4 4 6q28 36 45 51q2 2 5 6t5 6q26 21 39 29l8 8q8 4 10 6q4 2 12.5 6.5t12.5 6.5q1 1 4 2t4 2q8 4 10 4q2 1 6.5 3t6.5 3l10 4q2 1 7 2t7 2q12 4 17 4q12 4 18 4q2 1 7.5 2.5t7.5 2.5h6q6 2 18 2q2 0 6 1 t6 1h9h14h12h8q2 0 6.5 -1t6.5 -1q12 0 18 -2h8q2 -1 4 -1.5t5.5 -1.5t5.5 -2q4 0 16 -4q6 0 18 -4q2 -1 6.5 -2t6.5 -2h2q4 -4 10 -4q8 -4 10 -6q5 0 13 -4q1 -1 3 -2t3 -2q4 -2 12 -6.5t12 -6.5q10 -5 11 -6q6 -6 10 -8q24 -16 37 -29l12 -12q22 -19 43 -51q4 -4 4 -6 q8 -8 14 -25q45 -79 45 -176v-362q0 -97 -45 -176q-1 -2 -3 -6.5t-3 -6.5q-1 -1 -3 -4t-3 -4q-4 -8 -6 -10q-4 -8 -6 -10q-5 -5 -8 -11q-6 -6 -7 -8l-6 -6l-6 -6l-10 -10l-23 -23q-4 -2 -12 -10q-1 -1 -4 -2t-4 -2q-9 -9 -21 -15q-4 -4 -8 -4q-4 -4 -12 -8q-12 -6 -14 -8 q-6 -3 -15 -6q-4 0 -6 -2q-12 -6 -14 -6q-2 -1 -5.5 -2t-5.5 -1.5t-4 -1.5h-2q-8 -4 -14 -4q-2 -2 -4 -2q-6 0 -14 -4q-11 0 -15 -2h-6q-1 0 -4.5 -1t-5.5 -1h-2h-8q-4 -2 -13 -2h-4h-16q-37 0 -74 6q-12 4 -18 4q-2 1 -17 6q-3 1 -10 3.5t-10 3.5q-1 1 -4.5 2t-5.5 2 t-6.5 3t-6.5 3q-6 2 -14 6l-2 2q-12 6 -14 8q-5 0 -9 4q-3 2 -8 5.5t-8 5.5q-6 6 -10 8t-10 8q-6 3 -11 8q-3 3 -10 9.5t-10 9.5l-10 10q-10 10 -11 12q-16 19 -30 43q-2 3 -5.5 8.5t-5.5 8.5v-553h-90v45zM145 369q0 -132 94 -226t226 -94t224.5 94t92.5 226v362 q0 132 -92.5 226t-224.5 94t-226 -94t-94 -226v-362z" />
<glyph unicode="q" horiz-adv-x="901" d="M66 365v364q0 94 45 176q10 15 14 23q4 4 4 8q2 2 6.5 7.5t7.5 8.5q12 16 19 23l10 10l8 8q9 9 15 13l8 8q2 1 5 3t5 3q44 30 72 43q1 0 4 1t4 1q18 7 29 10q12 4 16 6q4 0 16 4h2q2 0 7.5 1t7.5 1h6q3 1 9 2.5t9 2.5h13h8h14h12h9h12q3 -1 9 -2.5t9 -2.5h6q3 0 8 -1 t7 -1q12 -4 18 -4q3 -1 9.5 -3t9.5 -3q4 0 12 -4q1 0 3 -1t3 -1q2 -1 5 -2t5 -2q1 0 3 -1t3 -1q9 -3 15 -6q2 -1 7 -4t7 -4q3 -1 8 -4.5t8 -4.5q2 -2 7.5 -5t7.5 -5t7 -5t7 -5q16 -12 27 -23l12 -12l12 -12q2 -2 6.5 -6t6.5 -6q3 -4 9 -12.5t9 -12.5l4 -8q2 -3 8 -14 q6 -9 7 -9v187h92v-45h-47v-1364h47v-48h-92v553q-3 -7 -17 -26q-2 -3 -8 -15q-10 -10 -14 -16q-1 -2 -5.5 -5.5t-5.5 -4.5v-2q-2 -2 -6 -6.5t-6 -6.5l-12 -12q-3 -2 -9.5 -7t-9.5 -7q-2 -2 -6 -5t-6 -5q-9 -8 -16 -11q-2 -2 -7.5 -5t-7.5 -5q-1 0 -3 -1t-3 -1q-4 -4 -16 -8 q-3 -2 -9.5 -5t-9.5 -5q-5 -2 -16 -6.5t-16 -6.5q-3 -1 -9.5 -2t-9.5 -2q-12 -4 -18 -4q-4 -2 -15 -2q-2 -2 -6 -2q-3 0 -8.5 -1t-7.5 -1q-12 0 -16 -2h-19h-18q-2 0 -4 2h-13h-6q-2 0 -4 2h-10q-2 0 -4 2q-11 0 -15 2h-2q-4 0 -16 4q-2 0 -6 1t-6 1l-2 2q-5 0 -5 2h-2 q-1 0 -4 1t-4 1q-2 0 -2 3q-6 0 -10 4q-4 0 -12 4h-2l-7 4h-2q-1 1 -4 2t-4 2q-16 8 -24 14q-1 1 -11 6q-4 4 -10 7q-12 8 -18 14l-8 8h-2q-3 3 -9 6q-2 2 -9.5 11t-12.5 12l-2 4q-6 6 -8 10l-4 3q-4 3 -5 5q-10 15 -14 19q-1 2 -3 5t-3 5t-3 5t-3 5q-2 2 -6 10 q-45 79 -45 177zM111 365q0 -132 93.5 -226t225.5 -94t225 94t93 226v364q0 132 -93 225t-225 93t-225.5 -93t-93.5 -225v-364z" />
<glyph unicode="r" horiz-adv-x="546" d="M63 0v47h48v1000h-48v45h48h45v-45v-142q47 85 131.5 136t185.5 51v-7v-38v-52h-45v49q-116 -17 -194 -106.5t-78 -208.5v-682v-47h-45h-48z" />
<glyph unicode="s" horiz-adv-x="917" d="M86 360h47h45v-45h-43q17 -118 107 -196t209 -78q79 0 147 35t111 96q61 83 61 188q0 41 -8 72l-316 90l-43 13l-14 4l-100 28l-183 54q-11 31 -16 51v8q-4 24 -4 37v4v4q0 151 107 258t258 107q139 0 242 -92t120 -228q4 -28 4 -45h-47h-45v45h43q-17 118 -106.5 196 t-210.5 78q-77 0 -144 -34.5t-112 -94.5q-62 -84 -62 -190v-20v-3v-6q0 -4 2 -6v-12q0 -1 1 -3t1 -3q0 -6 2 -8v-7h4l312 -90l41 -12l16 -4l98 -29l117 -33h2l16 -6h3l47 -12q7 -15 16 -49v-4q6 -21 6 -47v-4q0 -153 -107 -262t-259 -109q-137 0 -240.5 91.5t-120.5 227.5 q-4 28 -4 45zM506 567z" />
<glyph unicode="t" horiz-adv-x="522" d="M49 1061v45h47v303h-47v45h47h45v-45v-303h45v-45h-45v-379v-31v-289q0 -119 78.5 -208.5t194.5 -106.5v43h45v-45v-45h-45v2q-136 17 -227 120t-91 240v289v31v379h-47z" />
<glyph unicode="u" horiz-adv-x="964" d="M55 1042v48h47h45v-48v-680q0 -131 93 -224t225 -93q131 0 224 93.5t93 223.5v680v48h45h45v-48h-45v-997h45v-45h-45h-45v45v141q-46 -84 -131.5 -135t-185.5 -51q-151 0 -257 105.5t-106 256.5v680h-47z" />
<glyph unicode="v" horiz-adv-x="937" d="M57 1040v47h35h47h54v-47h-41l311 -909l313 909h-39v47h51h48h36v-47h-49l-336 -972l-24 -68l-23 68l-336 972h-47z" />
<glyph unicode="w" horiz-adv-x="1437" d="M74 1040v47h135v-47h-41l311 -858l209 574l25 67l26 -67l207 -574l314 858h-39v47h135v-47h-49l-336 -950l-25 -90l-22 90l-211 594l-209 -594l-25 -90l-22 90l-336 950h-47z" />
<glyph unicode="x" horiz-adv-x="782" d="M63 0v45h68l238 512l-226 483h-61v47h41h49v-2l221 -475l221 477h2h48h43v-47h-64l-225 -483l237 -512h62v-45h-39h-51v2l-234 502l-233 -504h-4h-47h-46z" />
<glyph unicode="y" horiz-adv-x="923" d="M55 1036v45h138v-45h-41l311 -872l313 872h-39v45h135v-45h-49l-159 -454h2l-25 -68l-182 -504l-162 -452h-92v45h59l172 479l-332 954h-49z" />
<glyph unicode="z" horiz-adv-x="733" d="M70 0l20 45l463 995h-375h-43v-45h-47v45v45h487h50l-21 -45l-463 -995h416h43v45h45v-45h2v-45h-528h-49z" />
<glyph unicode="{" horiz-adv-x="718" d="M14 733q63 0 121 25q89 36 144 116t55 179v45q0 152 106.5 259t257.5 107v-45q-132 0 -225.5 -94t-93.5 -227v-45q0 -102 -51.5 -188t-137.5 -132q86 -46 137.5 -132t51.5 -187v-47q0 -132 93.5 -226t225.5 -94v-45q-151 0 -257.5 107t-106.5 258v47q0 99 -55 179 t-144 116q-56 24 -121 24z" />
<glyph unicode="|" horiz-adv-x="161" d="M51 0v1421h47l-2 -1421h-45z" />
<glyph unicode="}" horiz-adv-x="739" d="M33 4v45q132 0 225.5 94t93.5 226v47q0 101 51.5 187t137.5 132q-86 46 -137.5 132t-51.5 188v45q0 133 -93.5 227t-225.5 94v45q151 0 257.5 -107t106.5 -259v-45q0 -99 55 -179t144 -116q58 -25 121 -25q-65 0 -121 -24q-89 -36 -144 -116t-55 -179v-47 q0 -151 -106.5 -258t-257.5 -107z" />
<glyph unicode="~" horiz-adv-x="632" d="M80 1196q-2 40 20 74t60 49q34 13 69 6t62 -31q6 -5 15 -18t14 -23l6 -10q19 -40 59.5 -56t81.5 -1q1 1 3 2t3 2q6 0 8 2q45 17 60 57h16q-16 -51 -70 -71l-14 -7q-28 -9 -56.5 -10t-59 18.5t-48.5 57.5q-23 47 -62.5 66t-80.5 2q-33 -13 -52.5 -44t-17.5 -65h-16z" />
<glyph unicode="&#xad;" d="M47 563v117h47v-37h328h45h203v37h45v-117h-45v35h-203h-45h-328v-35h-47z" />
<glyph unicode="&#x2000;" horiz-adv-x="808" />
<glyph unicode="&#x2001;" horiz-adv-x="1616" />
<glyph unicode="&#x2002;" horiz-adv-x="808" />
<glyph unicode="&#x2003;" horiz-adv-x="1616" />
<glyph unicode="&#x2004;" horiz-adv-x="538" />
<glyph unicode="&#x2005;" horiz-adv-x="404" />
<glyph unicode="&#x2006;" horiz-adv-x="269" />
<glyph unicode="&#x2007;" horiz-adv-x="269" />
<glyph unicode="&#x2008;" horiz-adv-x="202" />
<glyph unicode="&#x2009;" horiz-adv-x="323" />
<glyph unicode="&#x200a;" horiz-adv-x="89" />
<glyph unicode="&#x2010;" d="M47 563v117h47v-37h328h45h203v37h45v-117h-45v35h-203h-45h-328v-35h-47z" />
<glyph unicode="&#x2011;" d="M47 563v117h47v-37h328h45h203v37h45v-117h-45v35h-203h-45h-328v-35h-47z" />
<glyph unicode="&#x2012;" d="M47 563v117h47v-37h328h45h203v37h45v-117h-45v35h-203h-45h-328v-35h-47z" />
<glyph unicode="&#x2013;" horiz-adv-x="1130" d="M47 563v117h72v-37h503h69h311v37h69v-117h-69v35h-311h-69h-503v-35h-72z" />
<glyph unicode="&#x2014;" horiz-adv-x="2154" d="M47 563v117h144v-37h1006h138h622v37h138v-117h-138v35h-622h-138h-1006v-35h-144z" />
<glyph unicode="&#x2018;" horiz-adv-x="147" d="M23 1296l28 138h53v-56h29v-82h-29h-53h-28z" />
<glyph unicode="&#x2019;" horiz-adv-x="204" d="M47 1352v82h31h51h31l-31 -140h-51v58h-31z" />
<glyph unicode="&#x201c;" horiz-adv-x="331" d="M31 1296l28 138h54v-56h28v-82h-28h-54h-28zM195 1296l30 138h51v-56h31v-82h-31h-51h-30z" />
<glyph unicode="&#x201d;" horiz-adv-x="356" d="M35 1354v82h31h51h30l-30 -140h-51v58h-31zM201 1354v82h28h54h28l-28 -140h-54v58h-28z" />
<glyph unicode="&#x202f;" horiz-adv-x="323" />
<glyph unicode="&#x205f;" horiz-adv-x="404" />
<glyph unicode="&#xe000;" horiz-adv-x="1085" d="M0 0v1085h1085v-1085h-1085z" />
</font>
</defs>
</svg>
